<svg width="102" height="103" viewBox="0 0 102 103" fill="none" xmlns="http://www.w3.org/2000/svg">
<path d="M43.1308 3.53862C47.4411 1.31819 52.5589 1.31819 56.8692 3.53862L73.14 11.9203L88.5342 21.8204C92.6123 24.443 95.1712 28.8752 95.4034 33.7182L96.28 52L95.4034 70.2818C95.1712 75.1248 92.6123 79.557 88.5342 82.1796L73.14 92.0797L56.8692 100.461C52.5589 102.682 47.4411 102.682 43.1308 100.461L26.86 92.0797L11.4658 82.1796C7.38773 79.557 4.82882 75.1248 4.5966 70.2818L3.72001 52L4.5966 33.7182C4.82882 28.8752 7.38772 24.443 11.4658 21.8204L26.86 11.9203L43.1308 3.53862Z" fill="#D8314F" stroke="#181515" stroke-width="2"/>
<path d="M43.1308 5.53861C47.4411 3.31819 52.5589 3.31819 56.8692 5.53862L72.25 13.4619L86.8021 22.8204C90.8803 25.443 93.4391 29.8752 93.6714 34.7182L94.5 52L93.6714 69.2818C93.4391 74.1248 90.8803 78.557 86.8021 81.1796L72.25 90.5381L56.8692 98.4614C52.5589 100.682 47.4411 100.682 43.1308 98.4614L27.75 90.5381L13.1979 81.1796C9.11977 78.557 6.56088 74.1248 6.32866 69.2818L5.50002 52L6.32866 34.7182C6.56088 29.8752 9.11978 25.443 13.1979 22.8204L27.75 13.4619L43.1308 5.53861Z" fill="#D8314F" stroke="white" stroke-width="2"/>
<path d="M47 27.0001C44.2423 27.0001 41.5115 27.6468 38.9637 28.9032C36.4158 30.1595 34.1008 32.001 32.1508 34.3225C30.2007 36.6439 28.6539 39.3999 27.5985 42.4331C26.5432 45.4662 26 48.7171 26 52.0002C26 55.2832 26.5432 58.5341 27.5985 61.5672C28.6539 64.6004 30.2007 67.3564 32.1508 69.6778C34.1008 71.9993 36.4158 73.8408 38.9637 75.0971C41.5115 76.3535 44.2423 77.0002 47 77.0002L47 57.5002C45.0792 57.5002 43.1773 68.9623 41.4027 68.0872C39.6281 67.2121 38.0157 65.9295 36.6575 64.3126C35.2993 62.6957 34.2219 60.7762 33.4869 58.6636C32.7518 56.551 32.1508 54.7718 32.1508 52.4851C32.1508 50.1985 32.7518 47.4493 33.4869 45.3367C34.2219 43.2241 35.2993 41.3046 36.6575 39.6877C38.0157 38.0708 39.6281 36.7882 41.4027 35.9131C43.1773 35.038 45.0792 47.0002 47 47.0002L47 27.0001Z" fill="black"/>
<path d="M53 77C55.7578 77 58.4885 76.3534 61.0364 75.097C63.5842 73.8406 65.8992 71.9991 67.8493 69.6777C69.7993 67.3562 71.3461 64.6002 72.4015 61.5671C73.4568 58.5339 74 55.283 74 52C74 48.717 73.4568 45.4661 72.4015 42.4329C71.3461 39.3998 69.7993 36.6438 67.8493 34.3223C65.8992 32.0009 63.5842 30.1594 61.0364 28.903C58.4885 27.6466 55.7578 27 53 27L53 46.5C54.9208 46.5 56.8228 35.0379 58.5973 35.913C60.3719 36.788 61.9843 38.0706 63.3425 39.6875C64.7007 41.3044 65.7781 43.2239 66.5131 45.3365C67.2482 47.4491 67.8493 49.2284 67.8493 51.515C67.8493 53.8017 67.2482 56.5509 66.5131 58.6635C65.7781 60.7761 64.7007 62.6956 63.3425 64.3125C61.9843 65.9294 60.3719 67.212 58.5973 68.087C56.8228 68.9621 54.9208 57 53 57L53 77Z" fill="black"/>
</svg>
